Fly_normalized_Motion_pl02
version=1
nRows=8
nColumns=43
inDegrees=yes
endheader
time		pelvis_tilt		pelvis_list		pelvis_rotation		pelvis_tx		pelvis_ty		pelvis_tz		hip_flexion_r		hip_adduction_r		hip_rotation_r		knee_angle_r		ankle_angle_r		subtalar_angle_r		mtp_angle_r		hip_flexion_l		hip_adduction_l		hip_rotation_l		knee_angle_l		ankle_angle_l		subtalar_angle_l		mtp_angle_l		lumbar_extension		lumbar_bending		lumbar_rotation		neck_flexion		neck_lateral_bending		neck_rotation		arm_flex_r		arm_add_r		arm_rot_r		elbow_flex_r		pro_sup_r		wrist_flex_r		wrist_dev_r		hand_finger_flex_r		arm_flex_l		arm_add_l		arm_rot_l		elbow_flex_l		pro_sup_l		wrist_flex_l		wrist_dev_l		hand_finger_flex_l		
0.898258		-2.616148		9.573846		92.428792		0.011512		1.425385		0.787424		22.758759		-3.737417		-11.649169		-28.858363		-29.873349		-0.963448		13.630529		18.218996		-1.910302		-16.744054		-27.761570		-27.310461		-12.624973		14.966883		-43.767027		-3.311588		-6.300721		-28.510699		-0.628604		3.269272		-43.247783		-35.756226		-10.015809		76.254163		92.417329		-18.869914		-8.569967		42.755014		-50.792067		-41.343848		-26.687610		87.763262		106.128095		-17.594428		7.714144		83.075995		
0.902601		-2.621516		9.969889		92.387494		0.011674		1.411206		0.776054		21.695203		-3.641254		-11.761850		-27.817139		-30.171718		-0.840414		13.508724		17.190575		-1.971119		-16.988762		-26.440139		-27.516850		-12.191914		15.165436		-43.320077		-3.445162		-6.432590		-29.804279		-0.640057		3.519635		-45.515924		-34.895824		-11.215797		74.899849		92.599707		-18.209626		-8.512601		42.267000		-53.399159		-40.116927		-27.294481		87.025157		106.214343		-18.136547		7.232664		83.128427		
0.906944		-2.567690		10.286193		92.338713		0.011869		1.396643		0.764704		20.711673		-3.477820		-11.816312		-26.766021		-30.360341		-0.702235		13.476979		16.275140		-2.079624		-17.093967		-25.151927		-27.692406		-11.796734		15.344712		-42.790790		-3.534051		-6.484539		-31.024769		-0.673025		3.694956		-47.777553		-34.014378		-12.408518		73.597233		92.643378		-17.816910		-8.337491		41.839334		-55.901576		-38.907118		-27.793291		86.367031		106.137223		-18.685364		6.876982		83.220613		
0.911288		-2.481459		10.524462		92.318384		0.012216		1.381784		0.753309		19.798271		-3.271157		-11.867595		-25.709252		-30.478533		-0.568770		13.487658		15.481829		-2.226478		-17.126048		-23.923353		-27.860658		-11.446274		15.503648		-42.169405		-3.608681		-6.492984		-32.292074		-0.626382		3.812501		-49.991564		-33.066346		-13.561015		72.313174		92.585149		-17.657176		-8.094411		41.444948		-58.275111		-37.726804		-28.273710		85.686940		105.938337		-19.129976		6.651760		83.299873		
0.915631		-2.379342		10.675050		92.298046		0.012510		1.366557		0.741990		18.999199		-3.056318		-11.889963		-24.677098		-30.526247		-0.465605		13.512999		14.809651		-2.372474		-17.071657		-22.730567		-27.984405		-11.162471		15.622477		-41.467863		-3.668288		-6.476778		-33.491736		-0.578306		3.878592		-52.167324		-32.130939		-14.663191		71.065415		92.445105		-17.682407		-7.846244		41.132680		-60.567553		-36.540951		-28.738891		85.085284		105.697622		-19.448555		6.531409		83.358658		
0.919975		-2.261312		11.119751		92.292812		0.012865		1.351954		0.730236		17.725949		-2.828843		-12.218680		-23.423157		-30.588720		-0.331511		13.621160		13.718170		-2.576515		-17.229875		-21.429373		-28.123714		-10.515827		15.903261		-41.029034		-3.738686		-6.344585		-34.913126		-0.173236		4.027575		-54.178817		-31.090748		-15.748875		69.716756		92.172650		-17.546940		-7.370428		40.604297		-62.737792		-35.626735		-28.862550		84.376724		105.106049		-19.842597		6.242681		83.271333		
0.924318		-2.195712		11.225948		92.254912		0.013044		1.336242		0.718970		17.025816		-2.667083		-12.218046		-22.483852		-30.540444		-0.283186		13.678635		13.150153		-2.679540		-17.089366		-20.380963		-28.138028		-10.315779		16.028204		-40.298272		-3.830972		-6.330982		-36.060861		-0.105123		3.979489		-56.223751		-30.138403		-16.804876		68.600211		91.883216		-17.750206		-7.166177		40.306833		-64.847337		-34.368068		-29.297765		83.833686		104.839286		-20.014956		6.251099		83.281012		
0.928662		-2.165957		11.885501		92.207197		0.013222		1.321568		0.707332		15.549602		-2.544846		-12.598075		-21.287305		-30.572624		-0.066485		14.011811		11.825055		-2.791098		-17.302409		-19.125414		-28.147357		-9.535775		16.677627		-40.162600		-3.950688		-6.214243		-37.142291		0.146575		3.957239		-58.180846		-29.135713		-17.887478		67.543599		91.197895		-17.519597		-6.738854		39.367810		-66.845687		-33.412421		-29.335649		83.220008		104.127432		-20.400686		6.055499		83.030562		
